<svg xmlns="http://www.w3.org/2000/svg"  viewBox="0 0 24 24" width="24px" height="24px" fill-rule="evenodd" clip-rule="evenodd" baseProfile="basic"><path fill-opacity=".298" d="M6,20.631v-3.632c-0.651-1.071-1-1.947-1-3L4.999,9.595	c1.244,0.901,3.4,1.404,5.001,1.404c2.325,0,3-1.896,3-4c0-1.765-3.893-2-6-2c-0.476,0-0.881,0.063-1.224,0.173	C6.768,3.402,8.643,1.999,11,1.999c3.361,0,5,2.644,5,5v12c0,1.645-0.367,3-2.181,3C13.075,22,12,21.904,12,20.631v-1.632h-2	c0,1.645-0.367,3-2.181,3C7.075,22,6,21.904,6,20.631z"/><path fill-rule="evenodd" d="M6.179,22.685	C5.464,22.324,5,21.629,5,20.631v-3.372l-0.328-0.588C4.252,15.829,4,14.985,4,14.001L3.999,9.597c-0.001-0.552,0.447-1,0.999-1	c0.552-0.001,1,0.447,1,0.999L6,13.999c0,0.795,0.249,1.485,0.853,2.481C6.949,16.637,7,16.817,7,16.999v3.632	c0,0.191,0.003,0.229,0.081,0.269c0.129,0.065,0.367,0.099,0.737,0.099c0.603,0,0.792-0.189,0.908-0.388	C8.901,20.311,9,19.793,9,18.999c0-0.551,0.448-1,1-1h2c0.551,0,1,0.449,1,1v1.632c0,0.191,0.003,0.229,0.081,0.269	c0.129,0.065,0.367,0.099,0.737,0.099c0.603,0,0.792-0.189,0.908-0.388c0.175-0.3,0.273-0.819,0.273-1.612v-12c0-1.888-1.287-4-4-4	c-1.933,0-3.504,1.148-4.352,2.663c-0.271,0.481-0.88,0.653-1.361,0.384c-0.481-0.271-0.653-0.88-0.384-1.361	C6.039,2.658,8.217,0.999,11,0.999c4.023,0,6,3.192,6,6v12c0,0.853-0.087,1.835-0.548,2.623C15.929,22.516,15.032,23,13.819,23	c-0.375,0-1.047-0.013-1.64-0.315C11.464,22.324,11,21.629,11,20.631v-0.632h-0.061l-0.04,0.336	c-0.08,0.451-0.216,0.893-0.447,1.287C9.929,22.516,9.032,23,7.819,23C7.444,23,6.772,22.986,6.179,22.685z" clip-rule="evenodd"/><path fill-rule="evenodd" d="M3,7.999	c0-0.82,0.168-1.827,0.811-2.645C4.485,4.491,5.557,3.999,7,3.999c1.071,0,2.661,0.059,4.009,0.363	c0.668,0.151,1.361,0.38,1.911,0.753C13.496,5.507,14,6.131,14,6.999c0,1.128-0.176,2.349-0.78,3.319	c-0.651,1.044-1.728,1.681-3.22,1.681C7.632,11.999,3,10.871,3,7.999z M11.523,9.261C11.837,8.755,12,7.977,12,6.999	c0-0.027,0.001-0.089-0.204-0.229c-0.247-0.168-0.657-0.328-1.227-0.456C9.444,6.059,8.035,5.999,7,5.999	c-0.96,0-1.391,0.301-1.616,0.588C5.128,6.915,5,7.409,5,7.999c0,0.272,0.343,0.792,1.5,1.288C7.571,9.745,8.935,9.999,10,9.999	C10.833,9.999,11.255,9.691,11.523,9.261z" clip-rule="evenodd"/><path fill-rule="evenodd" d="M16,18.999c0-0.551,0.448-1,1-1	l1.536-0.005c0.02-0.061,0.039-0.127,0.06-0.203c0.075-0.279,0.145-0.643,0.207-1.08c0.123-0.873,0.199-1.988,0.199-3.212	c0-1.223-0.076-2.337-0.199-3.211c-0.061-0.437-0.132-0.801-0.207-1.08c-0.021-0.075-0.04-0.139-0.061-0.201L17,8.999	c-0.552,0-1-0.448-1-1c0-0.551,0.448-1,1-1h2c0.315,0,0.567,0.124,0.743,0.256c0.167,0.128,0.285,0.279,0.365,0.404	c0.193,0.296,0.324,0.676,0.42,1.032c0.101,0.381,0.187,0.829,0.256,1.32c0.137,0.981,0.217,2.191,0.217,3.488	c0,1.299-0.08,2.508-0.217,3.489c-0.069,0.491-0.155,0.939-0.256,1.32c-0.096,0.359-0.227,0.735-0.42,1.032	c-0.08,0.125-0.199,0.276-0.365,0.404c-0.176,0.132-0.428,0.255-0.743,0.255h-2C16.448,19.999,16,19.551,16,18.999z" clip-rule="evenodd"/></svg>